<svg width="46" height="31" viewBox="0 0 46 31" fill="none" xmlns="http://www.w3.org/2000/svg">
<path d="M24.7562 5.14473H24.279V5.84556H24.6687L24.7562 5.14473Z" fill="#008CFF"/>
<path d="M25.8854 5.14473H25.2413L25.1538 5.84556H25.798L25.8854 5.14473Z" fill="#008CFF"/>
<path d="M12.9308 16.5253V26.6236C12.9308 27.6828 13.7817 28.5349 14.8394 28.5349H30.8319C31.8817 28.5349 32.7405 27.6828 32.7405 26.6236V16.5253C32.7405 15.474 31.8817 14.6139 30.8319 14.6139H14.8394C13.7897 14.6139 12.9308 15.4661 12.9308 16.5253ZM17.0343 27.4439H16.0959C15.2052 27.4439 14.4895 26.7271 14.4895 25.8352C14.4895 24.9432 15.2132 24.2264 16.0959 24.2264H17.0343V27.4439ZM29.5834 27.4439H28.645V24.2185H29.5834C30.4741 24.2185 31.1898 24.9432 31.1898 25.8272C31.1977 26.7192 30.4741 27.4439 29.5834 27.4439ZM28.2871 16.6288C29.9015 16.6288 31.2136 17.9429 31.2136 19.5595C31.2136 21.1762 29.9015 22.4903 28.2871 22.4903C26.6728 22.4903 25.3606 21.1842 25.3606 19.5595C25.3606 17.9429 26.6648 16.6288 28.2871 16.6288ZM24.8755 24.2185H28.3348V27.4439H24.8755V24.2185ZM21.1139 24.2185H24.5733V27.4439H21.1139V24.2185ZM20.8038 27.4439H17.3444V24.2185H20.8038V27.4439ZM17.3922 16.6288C19.0065 16.6288 20.3187 17.9429 20.3187 19.5595C20.3187 21.1762 19.0065 22.4903 17.3922 22.4903C15.7778 22.4903 14.4656 21.1842 14.4656 19.5595C14.4656 17.9429 15.7778 16.6288 17.3922 16.6288Z" fill="#008CFF"/>
<path d="M43.2617 0H2.56071C1.14516 0 0 1.14681 0 2.5644V27.5156C0 28.9332 1.14516 30.08 2.56071 30.08H12.5888C11.6266 29.7773 10.9347 28.8854 10.9347 27.8182V27.9297H7.83323C7.29246 27.9297 6.86302 27.1492 6.86302 26.1776V16.9474C6.86302 15.9837 7.30041 15.1953 7.83323 15.1953H10.9347V15.3068C10.9347 14.0007 11.9924 12.9415 13.2966 12.9415H15.7619V11.5H22.4181V5.39162H20.8038V3.89439H24.287V4.67486H24.8278L24.9152 3.98199H25.4003L25.3129 4.67486H25.9491L26.0365 3.98199H26.5217L26.4342 4.67486H26.9988L27.0068 5.14473H26.3785L26.291 5.84556H26.8557V6.31544H26.2354L26.1479 7.00831H25.6548L25.7423 6.31544H25.1061L25.0186 7.00831H24.5256L24.613 6.31544H24.279V11.5H29.9174V12.9415H32.3827C33.6471 12.9415 34.6889 13.937 34.7446 15.1953H37.9494C38.4345 15.1953 38.8242 15.9758 38.8242 16.9474V26.1935C38.8242 27.1572 38.4345 27.9456 37.9494 27.9456H34.7446C34.6968 28.957 34.0129 29.8012 33.0904 30.0879H43.2617C44.6773 30.0879 45.8224 28.9411 45.8224 27.5235V2.5644C45.8304 1.14681 44.6773 0 43.2617 0Z" fill="#008CFF"/>
</svg>
