<svg width="152" height="31" viewBox="0 0 152 31" fill="none" xmlns="http://www.w3.org/2000/svg">
<path d="M24.7562 5.14473H24.279V5.84556H24.6687L24.7562 5.14473Z" fill="#008CFF"/>
<path d="M25.8854 5.14473H25.2413L25.1538 5.84556H25.798L25.8854 5.14473Z" fill="#008CFF"/>
<path d="M12.9308 16.5253V26.6236C12.9308 27.6828 13.7817 28.5349 14.8394 28.5349H30.8319C31.8817 28.5349 32.7405 27.6828 32.7405 26.6236V16.5253C32.7405 15.474 31.8817 14.6139 30.8319 14.6139H14.8394C13.7897 14.6139 12.9308 15.4661 12.9308 16.5253ZM17.0343 27.4439H16.0959C15.2052 27.4439 14.4895 26.7271 14.4895 25.8352C14.4895 24.9432 15.2132 24.2264 16.0959 24.2264H17.0343V27.4439ZM29.5834 27.4439H28.645V24.2185H29.5834C30.4741 24.2185 31.1898 24.9432 31.1898 25.8272C31.1977 26.7192 30.4741 27.4439 29.5834 27.4439ZM28.2871 16.6288C29.9015 16.6288 31.2136 17.9429 31.2136 19.5595C31.2136 21.1762 29.9015 22.4903 28.2871 22.4903C26.6728 22.4903 25.3606 21.1842 25.3606 19.5595C25.3606 17.9429 26.6648 16.6288 28.2871 16.6288ZM24.8755 24.2185H28.3348V27.4439H24.8755V24.2185ZM21.1139 24.2185H24.5733V27.4439H21.1139V24.2185ZM20.8038 27.4439H17.3444V24.2185H20.8038V27.4439ZM17.3922 16.6288C19.0065 16.6288 20.3187 17.9429 20.3187 19.5595C20.3187 21.1762 19.0065 22.4903 17.3922 22.4903C15.7778 22.4903 14.4656 21.1842 14.4656 19.5595C14.4656 17.9429 15.7778 16.6288 17.3922 16.6288Z" fill="#008CFF"/>
<path d="M43.2617 0H2.56071C1.14516 0 0 1.14681 0 2.5644V27.5156C0 28.9332 1.14516 30.08 2.56071 30.08H12.5888C11.6266 29.7773 10.9347 28.8854 10.9347 27.8182V27.9297H7.83323C7.29246 27.9297 6.86302 27.1492 6.86302 26.1776V16.9474C6.86302 15.9837 7.30041 15.1953 7.83323 15.1953H10.9347V15.3068C10.9347 14.0007 11.9924 12.9415 13.2966 12.9415H15.7619V11.5H22.4181V5.39162H20.8038V3.89439H24.287V4.67486H24.8278L24.9152 3.98199H25.4003L25.3129 4.67486H25.9491L26.0365 3.98199H26.5217L26.4342 4.67486H26.9988L27.0068 5.14473H26.3785L26.291 5.84556H26.8557V6.31544H26.2354L26.1479 7.00831H25.6548L25.7423 6.31544H25.1061L25.0186 7.00831H24.5256L24.613 6.31544H24.279V11.5H29.9174V12.9415H32.3827C33.6471 12.9415 34.6889 13.937 34.7446 15.1953H37.9494C38.4345 15.1953 38.8242 15.9757 38.8242 16.9474V26.1935C38.8242 27.1572 38.4345 27.9456 37.9494 27.9456H34.7446C34.6968 28.957 34.0129 29.8012 33.0904 30.0879H43.2617C44.6772 30.0879 45.8224 28.9411 45.8224 27.5235V2.5644C45.8304 1.14681 44.6772 0 43.2617 0Z" fill="#008CFF"/>
<path d="M58.093 9.89573L58.0796 6.50259L56.419 9.2922H55.8297L54.1824 6.56965V9.88232H52.9503V4.23602H54.0351L56.1511 7.74987L58.2269 4.23602H59.2983L59.3117 9.88232H58.093V9.89573Z" fill="#008CFF"/>
<path d="M63.4633 4.23602H64.7758V9.88232H63.4633V4.23602Z" fill="#008CFF"/>
<path d="M78.9181 6.288C78.9181 7.54869 77.9806 8.32657 76.4673 8.32657H75.3289V9.88232H74.0165V4.23602H76.4539C77.9672 4.23602 78.9181 5.02731 78.9181 6.288ZM77.5922 6.288C77.5922 5.67107 77.1905 5.30895 76.3869 5.30895H75.3289V7.26705H76.3869C77.1905 7.26705 77.5922 6.90494 77.5922 6.288Z" fill="#008CFF"/>
<path d="M86.2571 9.89571L85.1723 8.32655H85.1053H83.967V9.89571H82.6545V4.24942H85.0919C86.6053 4.24942 87.5427 5.02729 87.5427 6.3014C87.5427 7.14633 87.1142 7.77668 86.3776 8.08514L87.6499 9.89571H86.2571ZM85.025 5.30894H83.967V7.28045H85.025C85.8285 7.28045 86.2303 6.90492 86.2303 6.3014C86.2303 5.67105 85.8285 5.30894 85.025 5.30894Z" fill="#008CFF"/>
<path d="M91.3997 4.23602H92.7122V9.88232H91.3997V4.23602Z" fill="#008CFF"/>
<path d="M101.993 9.89573L101.98 6.50259L100.319 9.2922H99.7297L98.0825 6.56965V9.88232H96.8504V4.23602H97.9352L100.051 7.74987L102.127 4.23602H103.198L103.212 9.88232H101.993V9.89573Z" fill="#008CFF"/>
<path d="M111.743 8.83621V9.88232H107.377V4.23602H111.636V5.28213H108.662V6.516H111.287V7.53528H108.662V8.84962H111.743V8.83621Z" fill="#008CFF"/>
<path d="M119.189 9.89571L118.104 8.32655H118.037H116.899V9.89571H115.586V4.24942H118.024C119.537 4.24942 120.474 5.02729 120.474 6.3014C120.474 7.14633 120.046 7.77668 119.309 8.08514L120.582 9.89571H119.189ZM117.957 5.30894H116.899V7.28045H117.957C118.76 7.28045 119.162 6.90492 119.162 6.3014C119.162 5.67105 118.76 5.30894 117.957 5.30894Z" fill="#008CFF"/>
<path d="M61.6018 24.7521L58.9769 20.97H58.8162H56.0975V24.7521H52.9503V11.1527H58.8296C62.4589 11.1527 64.7222 13.0438 64.7222 16.0882C64.7222 18.1268 63.691 19.6289 61.9232 20.3799L64.9633 24.7521H61.6018ZM58.6555 13.7143H56.0975V18.4486H58.6555C60.5706 18.4486 61.5482 17.5501 61.5482 16.0748C61.5482 14.5861 60.5706 13.7143 58.6555 13.7143Z" fill="#008CFF"/>
<path d="M73.1326 17.9524C73.1326 13.9155 76.2798 10.9247 80.5653 10.9247C84.8375 10.9247 87.9981 13.9021 87.9981 17.9524C87.9981 22.0027 84.8375 24.9801 80.5653 24.9801C76.2664 24.9801 73.1326 21.9893 73.1326 17.9524ZM84.8107 17.9524C84.8107 15.364 82.9893 13.5936 80.5653 13.5936C78.1413 13.5936 76.3066 15.364 76.3066 17.9524C76.3066 20.5408 78.1279 22.3112 80.5519 22.3112C82.9759 22.3112 84.8107 20.5408 84.8107 17.9524Z" fill="#008CFF"/>
<path d="M109.586 21.0371C109.586 23.3841 107.725 24.7521 104.149 24.7521H97.1316V11.1527H103.761C107.162 11.1527 108.903 12.5744 108.903 14.6934C108.903 16.048 108.207 17.1075 107.096 17.6842C108.609 18.167 109.586 19.3338 109.586 21.0371ZM100.252 13.5266V16.732H103.372C104.899 16.732 105.743 16.1821 105.743 15.1226C105.743 14.0496 104.913 13.5266 103.372 13.5266H100.252ZM106.426 20.7152C106.426 19.5752 105.555 19.0253 103.922 19.0253H100.252V22.3917H103.922C105.542 22.3783 106.426 21.882 106.426 20.7152Z" fill="#008CFF"/>
<path d="M117.89 17.9524C117.89 13.9155 121.037 10.9247 125.322 10.9247C129.595 10.9247 132.755 13.9021 132.755 17.9524C132.755 22.0027 129.595 24.9801 125.322 24.9801C121.037 24.9801 117.89 21.9893 117.89 17.9524ZM129.568 17.9524C129.568 15.364 127.746 13.5936 125.322 13.5936C122.898 13.5936 121.077 15.364 121.077 17.9524C121.077 20.5408 122.898 22.3112 125.322 22.3112C127.746 22.3112 129.568 20.5408 129.568 17.9524Z" fill="#008CFF"/>
<path d="M144.514 13.7143H140.161V11.1527H152V13.7143H147.647V24.7521H144.5V13.7143H144.514Z" fill="#008CFF"/>
</svg>
