<svg width="120" height="103" viewBox="0 0 120 103" fill="none" xmlns="http://www.w3.org/2000/svg">
<path d="M27.8847 75.2485L27.8697 71.4697L26.0127 74.5764H25.3538L23.5118 71.5444V75.2336H22.134V68.9455H23.3471L25.7132 72.8587L28.0344 68.9455H29.2325L29.2475 75.2336H27.8847V75.2485Z" fill="#008CFF"/>
<path d="M33.8899 68.9455H35.3575V75.2336H33.8899V68.9455Z" fill="#008CFF"/>
<path d="M51.1719 71.2307C51.1719 72.6347 50.1236 73.501 48.4313 73.501H47.1584V75.2336H45.6908V68.9455H48.4163C50.1086 68.9455 51.1719 69.8267 51.1719 71.2307ZM49.6893 71.2307C49.6893 70.5436 49.24 70.1404 48.3415 70.1404H47.1584V72.321H48.3415C49.24 72.321 49.6893 71.9178 49.6893 71.2307Z" fill="#008CFF"/>
<path d="M59.3785 75.2485L58.1655 73.501H58.0906H56.8177V75.2485H55.3501V68.9604H58.0756C59.7679 68.9604 60.8162 69.8267 60.8162 71.2456C60.8162 72.1866 60.337 72.8886 59.5133 73.2322L60.936 75.2485H59.3785ZM58.0008 70.1404H56.8177V72.336H58.0008C58.8993 72.336 59.3486 71.9178 59.3486 71.2456C59.3486 70.5436 58.8993 70.1404 58.0008 70.1404Z" fill="#008CFF"/>
<path d="M65.1292 68.9455H66.5968V75.2336H65.1292V68.9455Z" fill="#008CFF"/>
<path d="M76.9749 75.2485L76.9599 71.4697L75.103 74.5764H74.444L72.602 71.5444V75.2336H71.2243V68.9455H72.4373L74.8034 72.8587L77.1247 68.9455H78.3227L78.3377 75.2336H76.9749V75.2485Z" fill="#008CFF"/>
<path d="M87.8772 74.0686V75.2336H82.9951V68.9455H87.7574V70.1105H84.4328V71.4846H87.368V72.6198H84.4328V74.0835H87.8772V74.0686Z" fill="#008CFF"/>
<path d="M96.2037 75.2485L94.9906 73.501H94.9158H93.6428V75.2485H92.1752V68.9604H94.9008C96.593 68.9604 97.6413 69.8267 97.6413 71.2456C97.6413 72.1866 97.1621 72.8886 96.3384 73.2322L97.7611 75.2485H96.2037ZM94.8259 70.1404H93.6428V72.336H94.8259C95.7245 72.336 96.1737 71.9178 96.1737 71.2456C96.1737 70.5436 95.7245 70.1404 94.8259 70.1404Z" fill="#008CFF"/>
<path d="M14.8559 96.7567L11.9206 92.5446H11.7409H8.70086V96.7567H5.18158V81.6114H11.7559C15.8143 81.6114 18.3452 83.7174 18.3452 87.1079C18.3452 89.3782 17.1921 91.051 15.2153 91.8875L18.6148 96.7567H14.8559ZM11.5612 84.4642H8.70086V89.7366H11.5612C13.7027 89.7366 14.796 88.7359 14.796 87.0929C14.796 85.435 13.7027 84.4642 11.5612 84.4642Z" fill="#008CFF"/>
<path d="M27.7499 89.184C27.7499 84.6882 31.2692 81.3575 36.0614 81.3575C40.8386 81.3575 44.3729 84.6733 44.3729 89.184C44.3729 93.6947 40.8386 97.0106 36.0614 97.0106C31.2542 97.0106 27.7499 93.6798 27.7499 89.184ZM40.8087 89.184C40.8087 86.3013 38.772 84.3297 36.0614 84.3297C33.3508 84.3297 31.2991 86.3013 31.2991 89.184C31.2991 92.0667 33.3358 94.0383 36.0464 94.0383C38.757 94.0383 40.8087 92.0667 40.8087 89.184Z" fill="#008CFF"/>
<path d="M68.5137 92.6193C68.5137 95.2332 66.4321 96.7567 62.4336 96.7567H54.5863V81.6114H61.9993C65.8031 81.6114 67.7499 83.1946 67.7499 85.5545C67.7499 87.0631 66.9712 88.243 65.7282 88.8853C67.4204 89.423 68.5137 90.7224 68.5137 92.6193ZM58.0756 84.2551V87.8248H61.565C63.2722 87.8248 64.2157 87.2124 64.2157 86.0325C64.2157 84.8376 63.2872 84.2551 61.565 84.2551H58.0756ZM64.9794 92.2609C64.9794 90.9913 64.006 90.3789 62.179 90.3789H58.0756V94.1279H62.179C63.991 94.113 64.9794 93.5603 64.9794 92.2609Z" fill="#008CFF"/>
<path d="M77.7986 89.184C77.7986 84.6882 81.3179 81.3575 86.1101 81.3575C90.8873 81.3575 94.4216 84.6733 94.4216 89.184C94.4216 93.6947 90.8873 97.0106 86.1101 97.0106C81.3179 97.0106 77.7986 93.6798 77.7986 89.184ZM90.8574 89.184C90.8574 86.3013 88.8207 84.3297 86.1101 84.3297C83.3995 84.3297 81.3628 86.3013 81.3628 89.184C81.3628 92.0667 83.3995 94.0383 86.1101 94.0383C88.8207 94.0383 90.8574 92.0667 90.8574 89.184Z" fill="#008CFF"/>
<path d="M107.57 84.4642H102.703V81.6114H115.942V84.4642H111.075V96.7567H107.555V84.4642H107.57Z" fill="#008CFF"/>
<path d="M63.0326 14.6673H62.134V15.9817H62.8678L63.0326 14.6673Z" fill="#008CFF"/>
<path d="M65.1591 14.6673H63.9461L63.7814 15.9817H64.9944L65.1591 14.6673Z" fill="#008CFF"/>
<path d="M40.7638 36.0112V54.9502C40.7638 56.9368 42.3662 58.5349 44.3579 58.5349H74.474C76.4508 58.5349 78.0681 56.9368 78.0681 54.9502V36.0112C78.0681 34.0396 76.4508 32.4265 74.474 32.4265H44.3579C42.3811 32.4265 40.7638 34.0246 40.7638 36.0112ZM48.4912 56.4887H46.7241C45.0468 56.4887 43.699 55.1444 43.699 53.4716C43.699 51.7987 45.0618 50.4545 46.7241 50.4545H48.4912V56.4887ZM72.1228 56.4887H70.3557V50.4395H72.1228C73.8001 50.4395 75.1479 51.7987 75.1479 53.4566C75.1629 55.1295 73.8001 56.4887 72.1228 56.4887ZM69.6818 36.2053C72.7218 36.2053 75.1928 38.6698 75.1928 41.7018C75.1928 44.7339 72.7218 47.1984 69.6818 47.1984C66.6417 47.1984 64.1707 44.7488 64.1707 41.7018C64.1707 38.6698 66.6267 36.2053 69.6818 36.2053ZM63.2572 50.4395H69.7716V56.4887H63.2572V50.4395ZM56.1737 50.4395H62.6881V56.4887H56.1737V50.4395ZM55.5897 56.4887H49.0753V50.4395H55.5897V56.4887ZM49.1651 36.2053C52.2052 36.2053 54.6762 38.6698 54.6762 41.7018C54.6762 44.7339 52.2052 47.1984 49.1651 47.1984C46.125 47.1984 43.6541 44.7488 43.6541 41.7018C43.6541 38.6698 46.125 36.2053 49.1651 36.2053Z" fill="#008CFF"/>
<path d="M97.881 5.01855H21.2355C18.5698 5.01855 16.4133 7.16937 16.4133 9.82801V56.6231C16.4133 59.2818 18.5698 61.4326 21.2355 61.4326H40.1198C38.3078 60.865 37.0049 59.1921 37.0049 57.1907V57.3998H31.1644C30.146 57.3998 29.3373 55.936 29.3373 54.1138V36.8028C29.3373 34.9955 30.161 33.5168 31.1644 33.5168H37.0049V33.7259C37.0049 31.2764 38.9966 29.2899 41.4526 29.2899H46.0951V26.5864H58.6297V15.1304H55.5897V12.3224H62.149V13.7861H63.1674L63.3321 12.4867H64.2456L64.0809 13.7861H65.2789L65.4437 12.4867H66.3572L66.1924 13.7861H67.2557L67.2707 14.6673H66.0876L65.9229 15.9817H66.9861V16.863H65.8181L65.6533 18.1624H64.7248L64.8896 16.863H63.6915L63.5268 18.1624H62.5983L62.763 16.863H62.134V26.5864H72.7518V29.2899H77.3942C79.7754 29.2899 81.7372 31.1569 81.842 33.5168H87.8772C88.7907 33.5168 89.5245 34.9806 89.5245 36.8028V54.1437C89.5245 55.951 88.7907 57.4297 87.8772 57.4297H81.842C81.7522 59.3266 80.4642 60.9098 78.7271 61.4475H97.881C100.547 61.4475 102.703 59.2967 102.703 56.638V9.82801C102.718 7.16937 100.547 5.01855 97.881 5.01855Z" fill="#008CFF"/>
</svg>
